Coordinates
version=1
nRows=65
nColumns=12
inDegrees=yes

Units are S.I. units (second, meters, Newtons, ...)
Angles are in degrees

endheader
time	SC_y	SC_z	SC_x	AC_y	AC_z	AC_x	GH_y	GH_z	GH_yy	EL_x	PS_y
       0.0              -51.19          19.02          81.66          62.98          1.641          13.53         -18.95          9.325          140.0          107.0          30.85
   0.03963              -51.19          19.02          81.66          62.97          1.638          13.53         -18.96          9.328          140.0          107.0          30.86
   0.07926              -51.18          19.03          81.66          62.97          1.635          13.52         -18.97          9.331          140.0          107.0          30.87
    0.1189              -51.18          19.03          81.65          62.96          1.632          13.52         -18.98          9.334          139.9          107.0          30.89
    0.1585              -51.17          19.03          81.65          62.96          1.629          13.52         -18.99          9.338          139.9          107.0           30.9
    0.1982              -51.16          19.04          81.64          62.95          1.625          13.52          -19.0          9.342          139.8          107.0          30.91
    0.2378              -51.15          19.04          81.64          62.95          1.621          13.52         -19.02          9.346          139.8          107.0          30.93
    0.2774              -51.15          19.04          81.63          62.94          1.617          13.51         -19.03           9.35          139.7          107.0          30.94
     0.317              -51.14          19.05          81.63          62.93          1.613          13.51         -19.05          9.355          139.6          107.0          30.96
    0.3567              -51.13          19.05          81.62          62.93          1.608          13.51         -19.06           9.36          139.6          107.0          30.98
    0.3963              -51.12          19.06          81.61          62.92          1.603          13.51         -19.08          9.365          139.5          107.0           31.0
    0.4359              -51.11          19.06          81.61          62.91          1.598           13.5          -19.1          9.371          139.4          107.0          31.02
    0.4756              -51.09          19.07           81.6           62.9          1.592           13.5         -19.12          9.377          139.3          107.0          31.04
    0.5152              -51.08          19.07          81.59          62.89          1.585          13.49         -19.15          9.384          139.2          107.0          31.07
    0.5548              -51.07          19.08          81.58          62.88          1.579          13.49         -19.17          9.391          139.1          107.0           31.1
    0.5945              -51.05          19.09          81.57          62.87          1.571          13.49          -19.2          9.399          139.0          107.0          31.12
    0.6341              -51.04           19.1          81.56          62.86          1.563          13.48         -19.23          9.407          138.9          107.0          31.16
    0.6737              -51.02           19.1          81.55          62.84          1.554          13.48         -19.26          9.416          138.8          107.0          31.19
    0.7134               -51.0          19.11          81.53          62.83          1.545          13.47         -19.29          9.427          138.6          107.0          31.23
     0.753              -50.98          19.12          81.52          62.81          1.534          13.46         -19.33          9.438          138.5          107.0          31.27
    0.7926              -50.96          19.14           81.5           62.8          1.523          13.46         -19.37           9.45          138.3          107.0          31.31
    0.8322              -50.93          19.15          81.49          62.78           1.51          13.45         -19.42          9.463          138.1          107.0          31.36
    0.8719               -50.9          19.16          81.47          62.75          1.496          13.44         -19.47          9.478          137.9          107.0          31.42
    0.9115              -50.87          19.18          81.45          62.73           1.48          13.43         -19.52          9.495          137.7          107.0          31.48
    0.9511              -50.83          19.19          81.42           62.7          1.463          13.42         -19.58          9.513          137.5          107.0          31.55
    0.9908               -50.8          19.21           81.4          62.68          1.444          13.41         -19.65          9.533          137.2          107.0          31.62
      1.03              -50.75          19.23          81.37          62.64          1.422           13.4         -19.73          9.556          136.9          107.0           31.7
      1.07               -50.7          19.26          81.34          62.61          1.398          13.38         -19.82          9.582          136.5          107.0           31.8
      1.11              -50.65          19.28           81.3          62.56           1.37          13.37         -19.91          9.611          136.1          107.0          31.91
     1.149              -50.58          19.31          81.26          62.52          1.339          13.35         -20.03          9.644          135.7          107.0          32.03
     1.189              -50.51          19.35          81.21          62.46          1.304          13.33         -20.15          9.682          135.2          107.0          32.17
     1.229              -50.43          19.39          81.15           62.4          1.263           13.3          -20.3          9.725          134.6          107.0          32.32
     1.268              -50.33          19.43          81.09          62.33          1.216          13.28         -20.47          9.775          133.9          107.0          32.51
     1.308              -50.22          19.49          81.02          62.24          1.161          13.24         -20.66          9.833          133.1          107.0          32.72
     1.347              -50.09          19.55          80.93          62.15          1.097           13.2         -20.89          9.901          132.2          107.0          32.97
     1.387              -49.94          19.62          80.83          62.03          1.021          13.16         -21.16          9.981          131.1          107.0          33.27
     1.427              -49.76          19.71          80.71           61.9         0.9311          13.11         -21.48          10.08          129.8          107.0          33.62
     1.466              -49.54          19.82          80.56          61.73         0.8234          13.04         -21.87          10.19          128.2          107.0          34.03
     1.506              -49.28          19.94          80.39          61.53         0.6931          12.97         -22.33          10.33          126.3          107.0          34.54
     1.546              -48.96           20.1          80.17          61.29         0.5339          12.87          -22.9           10.5          124.0          107.0          35.16
     1.585              -48.56          20.29          79.91          60.99         0.3375          12.75         -23.61           10.7          121.2          107.0          35.93
     1.625              -48.07          20.53          79.58          60.62        0.09254          12.61         -24.48          10.96          117.7          107.1          36.88
     1.664              -47.44          20.83          79.16          60.15        -0.2161          12.43         -25.58          11.29          113.2          107.1          38.08
     1.704              -46.65          21.21          78.63          59.55        -0.6083          12.19         -26.99           11.7          107.5          107.1          39.61
     1.744              -45.64           21.7          77.96          58.79          -1.11          11.89         -28.78          12.23          100.3          107.1          41.56
     1.783              -44.33          22.33          77.09          57.81         -1.755          11.51         -31.08          12.92          90.96          107.2          44.07
     1.823              -42.67          23.13          75.98          56.55         -2.578          11.02         -34.02          13.79          79.07          107.2          47.27
     1.863              -40.58          24.14          74.59          54.98         -3.613          10.41         -37.72          14.88          64.11          107.3           51.3
     1.902              -38.03          25.37          72.89          53.06         -4.874          9.661         -42.23          16.22          45.89          107.3          56.21
     1.942              -35.08          26.79          70.92          50.84         -6.336          8.793         -47.45          17.76          24.76          107.4           61.9
     1.982              -31.88          28.33          68.78          48.43         -7.919          7.854         -53.11          19.44          1.888          107.5          68.06
     2.021              -28.69          29.88          66.65          46.02         -9.502          6.914         -58.77          21.11         -20.99          107.6          74.22
     2.061              -25.73           31.3          64.68          43.79         -10.96          6.046         -63.99          22.66         -42.11          107.6          79.91
       2.1              -23.18          32.53          62.98          41.87         -12.22          5.298          -68.5          23.99         -60.34          107.7          84.82
      2.14              -21.09          33.54          61.59           40.3         -13.26          4.683          -72.2          25.08         -75.29          107.8          88.84
      2.18              -19.43          34.34          60.48          39.05         -14.08          4.195         -75.14          25.96         -87.19          107.8          92.05
     2.219              -18.13          34.97          59.61          38.07         -14.73          3.812         -77.44          26.64          -96.5          107.8          94.55
     2.259              -17.11          35.46          58.94           37.3         -15.23          3.514         -79.24          27.17         -103.8          107.9          96.51
     2.299              -16.32          35.84          58.41           36.7         -15.62          3.282         -80.64          27.58         -109.4          107.9          98.04
     2.338               -15.7          36.14          57.99          36.23         -15.93          3.098         -81.74          27.91         -113.9          107.9          99.24
     2.378               -15.2          36.38          57.66          35.86         -16.17          2.953         -82.62          28.17         -117.4          107.9          100.2
     2.417              -14.81          36.57           57.4          35.56         -16.37          2.836         -83.32          28.38         -120.3          107.9          101.0
     2.457              -14.49          36.72          57.18          35.32         -16.53          2.742         -83.89          28.54         -122.6          107.9          101.6
     2.497              -14.22          36.85          57.01          35.12         -16.66          2.665         -84.35          28.68         -124.4          107.9          102.1
     2.536              -14.01          36.96          56.86          34.96         -16.77          2.601         -84.74           28.8         -126.0          107.9          102.5
